<?xml version="1.0" encoding="UTF-8" standalone="no"?>
<!-- Created with Inkscape (http://www.inkscape.org/) -->

<svg
   xmlns:dc="http://purl.org/dc/elements/1.1/"
   xmlns:cc="http://creativecommons.org/ns#"
   xmlns:rdf="http://www.w3.org/1999/02/22-rdf-syntax-ns#"
   xmlns:svg="http://www.w3.org/2000/svg"
   xmlns="http://www.w3.org/2000/svg"
   xmlns:sodipodi="http://sodipodi.sourceforge.net/DTD/sodipodi-0.dtd"
   xmlns:inkscape="http://www.inkscape.org/namespaces/inkscape"
   width="67"
   height="67"
   id="svg3985"
   version="1.1"
   inkscape:version="0.48.4 r9939"
   sodipodi:docname="github_blue.svg">
  <defs
     id="defs3987" />
  <sodipodi:namedview
     id="base"
     pagecolor="#ffffff"
     bordercolor="#666666"
     borderopacity="1.0"
     inkscape:pageopacity="0.0"
     inkscape:pageshadow="2"
     inkscape:zoom="7"
     inkscape:cx="25.174407"
     inkscape:cy="32.665487"
     inkscape:current-layer="layer1"
     showgrid="true"
     inkscape:grid-bbox="true"
     inkscape:document-units="px"
     inkscape:window-width="1231"
     inkscape:window-height="776"
     inkscape:window-x="49"
     inkscape:window-y="24"
     inkscape:window-maximized="1" />
  <metadata
     id="metadata3990">
    <rdf:RDF>
      <cc:Work
         rdf:about="">
        <dc:format>image/svg+xml</dc:format>
        <dc:type
           rdf:resource="http://purl.org/dc/dcmitype/StillImage" />
        <dc:title />
      </cc:Work>
    </rdf:RDF>
  </metadata>
  <g
     id="layer1"
     inkscape:label="Layer 1"
     inkscape:groupmode="layer"
     transform="translate(0,19)">
    <path
       d="m 194.00951,-160.19632 c -11.2425,0 -20.36,9.11625 -20.36,20.3625 0,8.99625 5.83375,16.6275 13.925,19.32 1.01875,0.1875 1.39,-0.44125 1.39,-0.98125 0,-0.48375 -0.0175,-1.76375 -0.0275,-3.4625 -5.66375,1.23 -6.85875,-2.73 -6.85875,-2.73 -0.92625,-2.3525 -2.26125,-2.97875 -2.26125,-2.97875 -1.84875,-1.2625 0.14,-1.2375 0.14,-1.2375 2.04375,0.14375 3.11875,2.09875 3.11875,2.09875 1.81625,3.11125 4.76625,2.2125 5.92625,1.69125 0.185,-1.315 0.71125,-2.2125 1.2925,-2.72125 -4.52125,-0.51375 -9.275,-2.26125 -9.275,-10.06375 0,-2.2225 0.79375,-4.04125 2.09625,-5.46375 -0.21,-0.515 -0.90875,-2.58625 0.2,-5.38875 0,0 1.70875,-0.5475 5.59875,2.0875 1.62375,-0.4525 3.36625,-0.6775 5.0975,-0.68625 1.73,0.009 3.47125,0.23375 5.0975,0.68625 3.8875,-2.635 5.59375,-2.0875 5.59375,-2.0875 1.11125,2.8025 0.4125,4.87375 0.20375,5.38875 1.305,1.4225 2.0925,3.24125 2.0925,5.46375 0,7.8225 -4.76125,9.54375 -9.29625,10.0475 0.73,0.62875 1.38125,1.87125 1.38125,3.77 0,2.7225 -0.025,4.91875 -0.025,5.58625 0,0.545 0.3675,1.17875 1.4,0.98 8.085,-2.69875 13.91375,-10.325 13.91375,-19.31875 0,-11.24625 -9.1175,-20.3625 -20.36375,-20.3625"
       style="fill:#ffffff;fill-opacity:1;fill-rule:evenodd;stroke:none"
       id="path3116-3"
       inkscape:connector-curvature="0" />
    <path
       d="m 33.568436,-16.00215 c -17.946996,0 -32.5017392,13.903402 -32.5017392,31.055315 0,13.720389 9.3127232,25.358984 22.2292082,29.465377 1.626287,0.28596 2.218931,-0.672959 2.218931,-1.496527 0,-0.737779 -0.02793,-2.689936 -0.04389,-5.280738 -9.041343,1.875901 -10.948983,-4.163587 -10.948983,-4.163587 -1.478619,-3.587851 -3.609751,-4.54296 -3.609751,-4.54296 -2.9512582,-1.925468 0.22349,-1.887339 0.22349,-1.887339 3.262543,0.219236 4.978621,3.200852 4.978621,3.200852 2.899375,4.745038 7.608617,3.374334 9.460385,2.579364 0.295325,-2.005537 1.135407,-3.374335 2.063287,-4.150241 -7.217519,-0.783532 -14.806178,-3.448684 -14.806178,-15.348458 0,-3.389583 1.267103,-6.1634003 3.346351,-8.3328873 -0.335233,-0.78544 -1.450684,-3.9443495 0.319271,-8.2185064 0,0 2.727769,-0.8350052 8.937579,3.18369362 2.592078,-0.6901188 5.373722,-1.03327088 8.13741,-1.04661698 2.761688,0.013267 5.541338,0.35649818 8.137406,1.04661698 6.205822,-4.01869882 8.929598,-3.18369362 8.929598,-3.18369362 1.773946,4.2741569 0.658495,7.4330664 0.325257,8.2185064 2.08324,2.169487 3.340368,4.9433043 3.340368,8.3328873 0,11.930277 -7.600634,14.555395 -14.840093,15.323675 1.165336,0.958921 2.20496,2.853887 2.20496,5.749714 0,4.152147 -0.03992,7.501698 -0.03992,8.519718 0,0.831192 0.586661,1.79774 2.234894,1.49462 12.906513,-4.115924 22.211255,-15.746894 22.211255,-29.46347 0,-17.151913 -14.554745,-31.055315 -32.507726,-31.055315"
       style="fill:#2aabd2;fill-opacity:1;fill-rule:evenodd;stroke:none"
       id="path3116-6"
       inkscape:connector-curvature="0" />
  </g>
</svg>
